<svg width="754" height="535" viewBox="0 0 754 535" fill="none" xmlns="http://www.w3.org/2000/svg">
<path d="M106.655 478.779C248.871 553.069 479.43 553.069 621.628 478.779C763.827 404.489 763.844 284.033 621.628 209.743C479.413 135.452 248.854 135.452 106.655 209.743C-35.5433 284.033 -35.5602 404.489 106.655 478.779Z" fill="#053070"/>
<path d="M447.996 378.198C414.543 397.496 414.543 428.811 447.996 448.126C481.45 467.441 535.661 467.441 569.115 448.126C602.568 428.811 602.551 397.496 569.115 378.198C535.678 358.9 481.433 358.883 447.996 378.198Z" fill="#EBEBEB"/>
<path d="M95.7756 101.37L185.392 73.5005L116.449 121.262L95.7756 101.37Z" fill="#1971F5"/>
<path d="M185.393 73.5013L88.868 89.4219L68.1951 69.5127L185.393 73.5013Z" fill="#1971F5"/>
<path d="M88.8682 89.421V113.302L95.7761 101.37L185.393 73.5005L88.8682 89.421Z" fill="#455A64"/>
<path d="M88.8682 113.302L102.667 108.007L95.7761 101.37L88.8682 113.302Z" fill="#1971F5"/>
<path d="M95.7756 101.37L102.667 108.007L100.46 108.838L95.7756 101.37Z" fill="#455A64"/>
<path d="M74.0165 109.704C73.7311 109.709 73.4522 109.619 73.2246 109.446C72.997 109.274 72.8339 109.03 72.7614 108.754C72.689 108.478 72.7114 108.186 72.8251 107.924C72.9388 107.662 73.1373 107.446 73.3885 107.311C74.916 106.462 76.4606 105.614 77.9881 104.952C78.1396 104.87 78.3061 104.819 78.4776 104.804C78.6491 104.788 78.822 104.807 78.9859 104.86C79.1497 104.913 79.3011 104.999 79.4309 105.112C79.5606 105.226 79.666 105.364 79.7408 105.519C79.8155 105.674 79.8579 105.843 79.8655 106.015C79.8731 106.187 79.8458 106.359 79.7851 106.52C79.7243 106.681 79.6316 106.828 79.5123 106.953C79.3931 107.077 79.2499 107.176 79.0914 107.243C77.6147 107.956 76.1041 108.72 74.6275 109.551C74.4386 109.649 74.2293 109.702 74.0165 109.704Z" fill="#E0E0E0"/>
<path d="M58.3505 246.776C58.0904 246.779 57.8357 246.702 57.6207 246.556C54.8603 244.61 52.2452 242.465 49.7962 240.14C49.641 240.039 49.5096 239.906 49.4112 239.749C49.3128 239.592 49.2497 239.416 49.2264 239.232C49.2031 239.049 49.2201 238.862 49.2762 238.686C49.3323 238.51 49.4261 238.348 49.5512 238.211C49.6763 238.075 49.8296 237.968 50.0005 237.897C50.1713 237.826 50.3556 237.793 50.5405 237.8C50.7254 237.808 50.9064 237.855 51.071 237.94C51.2356 238.024 51.3798 238.144 51.4935 238.29C53.8557 240.532 56.3802 242.597 59.0464 244.468C59.2661 244.625 59.4302 244.848 59.5148 245.105C59.5993 245.361 59.6001 245.638 59.517 245.895C59.4338 246.152 59.271 246.376 59.0522 246.534C58.8333 246.693 58.5697 246.777 58.2996 246.776H58.3505ZM45.0438 234.42C44.8559 234.422 44.6699 234.382 44.4995 234.303C44.3291 234.223 44.1787 234.107 44.0594 233.962C41.9207 231.351 39.975 228.589 38.2377 225.696C38.0621 225.406 38.0091 225.057 38.0903 224.728C38.1714 224.398 38.3801 224.115 38.6705 223.939C38.9608 223.764 39.309 223.711 39.6385 223.792C39.9679 223.873 40.2516 224.082 40.4272 224.372C42.1006 227.162 43.9725 229.828 46.0282 232.349C46.2402 232.609 46.3413 232.942 46.3096 233.275C46.2778 233.609 46.1157 233.917 45.8585 234.131C45.6311 234.324 45.3414 234.426 45.0438 234.42ZM35.4881 218.975C35.2415 218.977 34.9996 218.908 34.7917 218.775C34.5838 218.643 34.4189 218.452 34.3169 218.228C32.93 215.155 31.7395 211.998 30.7527 208.774C30.6802 208.46 30.7293 208.131 30.89 207.852C31.0506 207.573 31.311 207.366 31.6186 207.271C31.9262 207.176 32.2583 207.202 32.548 207.342C32.8376 207.482 33.0634 207.727 33.1798 208.027C34.118 211.145 35.2518 214.2 36.5743 217.176C36.6455 217.328 36.6856 217.493 36.6925 217.661C36.6994 217.83 36.6729 217.997 36.6145 218.155C36.5561 218.313 36.467 218.458 36.3523 218.581C36.2376 218.704 36.0996 218.803 35.9463 218.873C35.8019 218.937 35.6461 218.972 35.4881 218.975ZM29.9719 201.645C29.6775 201.643 29.3931 201.538 29.1672 201.349C28.9413 201.161 28.7878 200.899 28.7329 200.61C28.085 197.312 27.626 193.98 27.3581 190.63C27.3311 190.292 27.4393 189.958 27.6589 189.7C27.8785 189.442 28.1916 189.282 28.5292 189.255C28.8668 189.228 29.2013 189.336 29.4592 189.556C29.717 189.776 29.877 190.089 29.904 190.426C30.1537 193.68 30.5957 196.916 31.2279 200.118C31.2624 200.282 31.2637 200.451 31.2318 200.616C31.1998 200.78 31.1353 200.937 31.042 201.076C30.9487 201.215 30.8285 201.334 30.6884 201.426C30.5483 201.518 30.3913 201.581 30.2265 201.611L29.9719 201.645ZM28.3595 183.518C28.1916 183.518 28.0255 183.485 27.8709 183.42C27.7162 183.354 27.5762 183.259 27.4591 183.139C27.3421 183.018 27.2503 182.876 27.1892 182.72C27.1281 182.563 27.099 182.396 27.1035 182.228C27.1432 178.869 27.3698 175.515 27.7824 172.181C27.7843 172.002 27.824 171.825 27.8988 171.662C27.9736 171.5 28.0818 171.355 28.2164 171.237C28.3511 171.119 28.509 171.031 28.6801 170.978C28.8511 170.925 29.0313 170.909 29.209 170.931C29.3866 170.952 29.5578 171.011 29.7112 171.103C29.8645 171.196 29.9968 171.319 30.0992 171.466C30.2016 171.613 30.2719 171.779 30.3056 171.955C30.3392 172.131 30.3354 172.312 30.2944 172.486C29.902 175.731 29.6866 178.994 29.6494 182.262C29.6472 182.43 29.6121 182.595 29.5461 182.748C29.48 182.902 29.3844 183.041 29.2646 183.158C29.1448 183.274 29.0032 183.366 28.8479 183.428C28.6926 183.49 28.5267 183.521 28.3595 183.518ZM30.4302 165.442C30.3347 165.459 30.2371 165.459 30.1416 165.442C29.8136 165.369 29.5279 165.169 29.3466 164.886C29.1654 164.603 29.1034 164.26 29.1742 163.932C29.9179 160.644 30.8703 157.407 32.0256 154.24C32.0819 154.075 32.1715 153.923 32.2889 153.794C32.4064 153.665 32.5491 153.561 32.7083 153.49C32.8675 153.418 33.0397 153.38 33.2142 153.378C33.3888 153.375 33.5619 153.409 33.7229 153.476C33.8867 153.535 34.037 153.626 34.1648 153.743C34.2925 153.861 34.3952 154.004 34.4665 154.162C34.5379 154.321 34.5764 154.492 34.5799 154.666C34.5834 154.84 34.5516 155.012 34.4867 155.174C33.373 158.235 32.4546 161.365 31.7371 164.543C31.6532 164.818 31.4783 165.058 31.2409 165.221C31.0035 165.384 30.7177 165.462 30.4302 165.442ZM36.4725 148.3C36.2768 148.307 36.0828 148.26 35.9124 148.164C35.7605 148.093 35.6243 147.993 35.5119 147.868C35.3994 147.744 35.313 147.599 35.2576 147.441C35.2023 147.282 35.1791 147.115 35.1896 146.947C35.2 146.78 35.2438 146.617 35.3183 146.467C36.7998 143.442 38.4663 140.511 40.3084 137.692C40.4939 137.429 40.772 137.246 41.0869 137.18C41.4018 137.114 41.7301 137.169 42.0057 137.335C42.2747 137.516 42.4637 137.793 42.5333 138.109C42.6029 138.425 42.5476 138.756 42.3791 139.033C40.5886 141.756 38.9729 144.591 37.5418 147.519C37.4539 147.736 37.3073 147.924 37.1184 148.062C36.9295 148.2 36.7058 148.282 36.4725 148.3ZM46.2319 133.024C45.948 133.027 45.6719 132.931 45.4511 132.753C45.3188 132.648 45.2085 132.519 45.1265 132.372C45.0445 132.225 44.9926 132.063 44.9736 131.896C44.9547 131.728 44.9691 131.559 45.0161 131.397C45.0631 131.235 45.1418 131.085 45.2475 130.954C47.3685 128.333 49.6351 125.834 52.0366 123.468C52.2753 123.23 52.5988 123.096 52.9362 123.096C53.2735 123.096 53.597 123.23 53.8357 123.468C54.0741 123.707 54.208 124.031 54.208 124.368C54.208 124.705 54.0741 125.029 53.8357 125.268C51.5226 127.575 49.3356 130.006 47.2842 132.549C47.1527 132.694 46.9891 132.807 46.8064 132.877C46.6236 132.948 46.4269 132.975 46.2319 132.956V133.024ZM58.9955 119.989C58.8104 119.989 58.6277 119.947 58.4605 119.868C58.2932 119.789 58.1456 119.674 58.028 119.531C57.813 119.271 57.7086 118.936 57.7371 118.6C57.7657 118.264 57.925 117.952 58.1808 117.732C60.7646 115.583 63.4554 113.566 66.2429 111.689C66.5165 111.522 66.8434 111.463 67.1581 111.526C67.4728 111.589 67.7522 111.769 67.9402 112.029C68.1296 112.311 68.2002 112.656 68.1367 112.99C68.0731 113.323 67.8805 113.618 67.6007 113.811C64.8812 115.637 62.2582 117.603 59.7423 119.701C59.5291 119.871 59.2682 119.972 58.9955 119.989Z" fill="#E0E0E0"/>
<path d="M70.0279 253.412C69.8457 253.414 69.6657 253.373 69.5017 253.294C67.9233 252.581 66.3618 251.817 64.8681 251.002C64.7221 250.925 64.5926 250.821 64.4871 250.694C64.3817 250.567 64.3022 250.42 64.2533 250.263C64.2045 250.105 64.1872 249.939 64.2024 249.775C64.2176 249.611 64.265 249.451 64.342 249.305C64.5004 249.013 64.7666 248.795 65.0836 248.697C65.4007 248.598 65.7436 248.628 66.0393 248.779C67.4989 249.56 69.0095 250.306 70.5371 251.002C70.799 251.124 71.0118 251.331 71.1403 251.59C71.2688 251.849 71.3054 252.144 71.2442 252.426C71.183 252.709 71.0276 252.962 70.8034 253.144C70.5793 253.326 70.2998 253.427 70.0109 253.429L70.0279 253.412Z" fill="#E0E0E0"/>
<path d="M650.584 191.818L722.38 145.856L754 156.006L650.584 191.818Z" fill="#1971F5"/>
<path d="M650.584 191.819L712.637 140.086L698.838 124.165L650.584 191.819Z" fill="#1971F5"/>
<path d="M712.637 140.084V152.084L650.584 191.818L712.637 140.084Z" fill="#455A64"/>
<path d="M726.64 135.078C726.332 135.079 726.035 134.964 725.808 134.756C725.557 134.531 725.404 134.217 725.382 133.88C725.36 133.544 725.47 133.213 725.689 132.957C727.899 130.491 729.861 127.813 731.545 124.962C731.716 124.67 731.996 124.457 732.324 124.371C732.652 124.285 733 124.333 733.293 124.504C733.585 124.675 733.798 124.956 733.884 125.283C733.97 125.611 733.922 125.96 733.751 126.252C731.974 129.241 729.916 132.054 727.607 134.654C727.486 134.79 727.336 134.898 727.169 134.971C727.002 135.044 726.822 135.081 726.64 135.078ZM736.348 119.26C736.196 119.284 736.042 119.284 735.89 119.26C735.729 119.198 735.582 119.105 735.459 118.985C735.335 118.865 735.237 118.722 735.17 118.563C735.104 118.405 735.07 118.234 735.071 118.062C735.072 117.89 735.108 117.72 735.177 117.562C736.376 114.471 737.274 111.271 737.859 108.007C737.919 107.673 738.11 107.378 738.388 107.186C738.667 106.993 739.011 106.919 739.344 106.98C739.677 107.041 739.972 107.231 740.165 107.51C740.357 107.788 740.431 108.132 740.371 108.465C739.745 111.885 738.796 115.238 737.536 118.479C737.44 118.714 737.275 118.914 737.063 119.054C736.851 119.193 736.602 119.265 736.348 119.26ZM739.98 101.048C739.814 101.046 739.649 101.01 739.497 100.944C739.344 100.878 739.206 100.782 739.091 100.662C738.976 100.542 738.885 100.4 738.825 100.245C738.765 100.09 738.737 99.9241 738.741 99.7578C738.741 99.3165 738.741 98.8752 738.741 98.4339C738.734 95.5524 738.507 92.6757 738.062 89.8287C738.013 89.4937 738.098 89.153 738.298 88.8799C738.498 88.6069 738.797 88.4234 739.132 88.369C739.466 88.3245 739.804 88.4109 740.076 88.6102C740.348 88.8095 740.533 89.1062 740.591 89.4383C741.05 92.415 741.283 95.4221 741.287 98.4339C741.287 98.8922 741.287 99.3504 741.287 99.8087C741.274 100.145 741.13 100.463 740.886 100.694C740.641 100.925 740.317 101.052 739.98 101.048ZM737.417 82.6492C737.144 82.6483 736.879 82.5583 736.661 82.3929C736.444 82.2275 736.286 81.9957 736.212 81.7327C735.238 78.548 734.018 75.4439 732.563 72.4485C732.488 72.2984 732.445 72.1349 732.434 71.9677C732.424 71.8004 732.447 71.6328 732.502 71.4746C732.558 71.3165 732.644 71.171 732.757 71.0467C732.869 70.9225 733.005 70.822 733.157 70.7512C733.461 70.6053 733.81 70.5859 734.129 70.6973C734.447 70.8086 734.708 71.0417 734.854 71.3452C736.372 74.4579 737.638 77.6875 738.639 81.0028C738.689 81.1621 738.706 81.3297 738.69 81.4958C738.674 81.6619 738.625 81.8231 738.546 81.97C738.467 82.117 738.36 82.2467 738.23 82.3517C738.1 82.4566 737.951 82.5347 737.791 82.5813C737.672 82.6283 737.545 82.6514 737.417 82.6492ZM729.542 65.7952C729.327 65.7971 729.116 65.7434 728.929 65.6393C728.741 65.5351 728.584 65.3842 728.473 65.2011C726.653 62.4079 724.651 59.7374 722.481 57.2069C722.372 57.08 722.288 56.9327 722.236 56.7735C722.183 56.6143 722.163 56.4463 722.175 56.2791C722.188 56.1119 722.233 55.9489 722.309 55.7994C722.385 55.6498 722.49 55.5168 722.617 55.4078C722.742 55.2987 722.888 55.2156 723.046 55.1633C723.204 55.1111 723.371 55.0907 723.536 55.1033C723.702 55.1159 723.864 55.1613 724.012 55.2369C724.16 55.3125 724.292 55.4167 724.399 55.5435C726.652 58.1629 728.727 60.93 730.611 63.8263C730.768 64.1058 730.816 64.4331 730.747 64.746C730.679 65.0589 730.497 65.3356 730.238 65.5236C730.035 65.673 729.793 65.7613 729.542 65.7782V65.7952ZM717.661 51.521C717.337 51.5199 717.026 51.392 716.795 51.1645C714.351 48.8771 711.784 46.724 709.107 44.7149C708.973 44.6146 708.86 44.4889 708.775 44.3451C708.69 44.2012 708.634 44.042 708.61 43.8765C708.587 43.711 708.596 43.5425 708.637 43.3806C708.679 43.2186 708.752 43.0665 708.852 42.9327C708.952 42.799 709.078 42.6863 709.222 42.6012C709.366 42.516 709.525 42.46 709.69 42.4363C709.856 42.4127 710.024 42.4219 710.186 42.4634C710.348 42.5048 710.5 42.5778 710.634 42.6781C713.393 44.7402 716.034 46.9558 718.543 49.3145C718.732 49.4895 718.864 49.7175 718.92 49.9686C718.977 50.2196 718.956 50.482 718.86 50.7209C718.764 50.9599 718.599 51.1642 718.385 51.3071C718.171 51.4499 717.918 51.5245 717.661 51.521ZM702.776 40.2171C702.535 40.2148 702.299 40.1442 702.097 40.0134C700.943 39.3005 699.738 38.5877 698.516 37.8918C696.818 36.9413 695.121 35.9908 693.322 35.0913C693.158 35.0254 693.009 34.926 692.885 34.7995C692.762 34.6729 692.666 34.522 692.603 34.3563C692.541 34.1906 692.515 34.0138 692.525 33.8371C692.535 33.6604 692.582 33.4878 692.662 33.3303C692.743 33.1727 692.855 33.0337 692.993 32.922C693.13 32.8104 693.289 32.7286 693.46 32.6819C693.63 32.6352 693.809 32.6246 693.984 32.6508C694.159 32.6769 694.326 32.7393 694.476 32.8339C696.258 33.7504 698.04 34.7009 699.772 35.6853C701.028 36.3812 702.25 37.111 703.438 37.8578C703.712 38.0329 703.909 38.3064 703.988 38.622C704.067 38.9377 704.022 39.2716 703.862 39.5551C703.752 39.7488 703.595 39.9113 703.405 40.0272C703.215 40.143 702.998 40.2084 702.776 40.2171ZM550.614 39.3514C550.39 39.349 550.17 39.2883 549.977 39.1752C549.784 39.0621 549.623 38.9006 549.511 38.7065C549.35 38.4199 549.308 38.0816 549.394 37.7643C549.479 37.447 549.686 37.1759 549.969 37.0092C552.922 35.3119 555.961 33.6146 559.033 32.1889C559.334 32.0418 559.682 32.0199 560 32.128C560.318 32.2361 560.58 32.4654 560.73 32.766C560.871 33.0706 560.888 33.4183 560.777 33.7352C560.666 34.0521 560.436 34.3133 560.136 34.4633C557.115 35.9399 554.127 37.5184 551.225 39.1987C551.035 39.2911 550.825 39.3321 550.614 39.3175V39.3514ZM686.227 31.5949C686.05 31.596 685.876 31.5553 685.718 31.476C682.663 30.1352 679.506 28.8792 676.349 27.759C676.029 27.6442 675.768 27.4072 675.624 27.1C675.479 26.7928 675.462 26.4407 675.577 26.1211C675.692 25.8015 675.929 25.5406 676.236 25.3958C676.543 25.2509 676.895 25.2341 677.215 25.3489C680.422 26.503 683.63 27.776 686.753 29.1508C687.026 29.2666 687.249 29.4736 687.385 29.7363C687.521 29.9989 687.562 30.3009 687.5 30.5901C687.437 30.8794 687.276 31.1379 687.044 31.3213C686.812 31.5046 686.523 31.6014 686.227 31.5949ZM567.332 31.0687C567.082 31.0704 566.836 30.9969 566.627 30.8578C566.418 30.7186 566.256 30.5202 566.161 30.288C566.092 30.1323 566.054 29.9643 566.051 29.7938C566.047 29.6233 566.078 29.4539 566.141 29.2956C566.205 29.1373 566.299 28.9933 566.419 28.8722C566.539 28.7511 566.682 28.6554 566.84 28.5907C569.98 27.2668 573.205 26.0447 576.43 24.9415C576.592 24.8744 576.766 24.8414 576.941 24.8448C577.117 24.8482 577.29 24.8878 577.449 24.9611C577.608 25.0344 577.751 25.1398 577.868 25.2708C577.984 25.4018 578.073 25.5555 578.127 25.7223C578.189 25.8859 578.217 26.0602 578.21 26.235C578.203 26.4097 578.161 26.5813 578.087 26.7396C578.013 26.8979 577.907 27.0396 577.777 27.1564C577.647 27.2732 577.495 27.3627 577.329 27.4195C574.155 28.5058 570.965 29.7109 567.892 31.0008C567.71 31.0515 567.519 31.0631 567.332 31.0348V31.0687ZM668.711 25.1961C668.593 25.2126 668.473 25.2126 668.355 25.1961C665.147 24.2626 661.854 23.4988 658.578 22.7011C658.415 22.6654 658.259 22.5978 658.122 22.5022C657.984 22.4066 657.866 22.2847 657.776 22.1437C657.685 22.0026 657.623 21.8451 657.594 21.6801C657.564 21.5151 657.567 21.3459 657.602 21.182C657.638 21.0182 657.706 20.863 657.801 20.7253C657.897 20.5876 658.019 20.4701 658.16 20.3794C658.301 20.2888 658.458 20.2269 658.623 20.1971C658.788 20.1674 658.958 20.1704 659.122 20.2061C662.516 20.9359 665.809 21.8015 669.068 22.752C669.362 22.8378 669.615 23.0268 669.781 23.2844C669.947 23.5419 670.015 23.8507 669.971 24.1541C669.928 24.4574 669.777 24.735 669.545 24.9357C669.314 25.1365 669.018 25.247 668.711 25.247V25.1961ZM584.95 24.9415C584.673 24.9405 584.403 24.8487 584.182 24.6801C583.962 24.5116 583.802 24.2756 583.728 24.008C583.682 23.8486 583.667 23.6816 583.685 23.5166C583.704 23.3516 583.755 23.1919 583.835 23.0467C583.916 22.9015 584.024 22.7737 584.154 22.6706C584.285 22.5676 584.434 22.4914 584.594 22.4465C587.869 21.53 591.23 20.7492 594.574 20.0024C594.743 19.9483 594.922 19.9304 595.099 19.9497C595.276 19.9689 595.447 20.0251 595.6 20.1144C595.754 20.2038 595.887 20.3244 595.992 20.4684C596.096 20.6124 596.169 20.7767 596.206 20.9507C596.243 21.1247 596.243 21.3045 596.206 21.4785C596.169 21.6525 596.097 21.8169 595.992 21.961C595.888 22.1051 595.755 22.2258 595.601 22.3153C595.447 22.4047 595.277 22.461 595.1 22.4805C591.807 23.1763 588.514 23.991 585.29 24.8906L584.95 24.9415ZM650.516 21.1056H650.262C646.952 20.5795 643.574 20.1552 640.248 19.8497C640.072 19.8477 639.899 19.8096 639.739 19.7377C639.58 19.6658 639.436 19.5616 639.319 19.4317C639.201 19.3018 639.111 19.149 639.055 18.9829C638.999 18.8167 638.978 18.6408 638.994 18.4661C639.009 18.2915 639.06 18.1218 639.144 17.9679C639.228 17.8139 639.342 17.6789 639.481 17.5714C639.619 17.4639 639.779 17.3861 639.948 17.3429C640.118 17.2998 640.295 17.2922 640.468 17.3207C643.863 17.6262 647.258 18.0505 650.652 18.5937C650.983 18.6519 651.278 18.8371 651.475 19.1097C651.671 19.3823 651.754 19.7209 651.704 20.0533C651.645 20.328 651.496 20.5752 651.281 20.7563C651.066 20.9375 650.797 21.0424 650.516 21.0547V21.1056ZM603.179 20.9868C602.877 20.9867 602.584 20.8791 602.354 20.6831C602.124 20.4872 601.971 20.2159 601.923 19.9175C601.874 19.5826 601.959 19.2418 602.159 18.9688C602.359 18.6957 602.658 18.5122 602.992 18.4579C606.387 17.9487 609.781 17.5244 613.176 17.2358C613.343 17.2213 613.512 17.2399 613.672 17.2905C613.832 17.3411 613.98 17.4227 614.108 17.5307C614.237 17.6386 614.343 17.7708 614.42 17.9197C614.498 18.0686 614.545 18.2313 614.559 18.3985C614.574 18.5656 614.555 18.734 614.505 18.894C614.454 19.054 614.372 19.2025 614.264 19.3309C614.157 19.4594 614.024 19.5653 613.875 19.6426C613.727 19.72 613.564 19.7673 613.397 19.7818C610.002 20.0703 606.692 20.4607 603.383 20.9868H603.179ZM631.948 19.2895C628.553 19.1707 625.159 19.1538 621.849 19.2895C621.682 19.2987 621.515 19.274 621.358 19.2169C621.201 19.1599 621.057 19.0716 620.935 18.9574C620.813 18.8432 620.715 18.7055 620.648 18.5526C620.58 18.3997 620.544 18.2347 620.542 18.0675C620.535 17.8997 620.562 17.7323 620.621 17.5751C620.68 17.418 620.77 17.2742 620.886 17.1524C621.001 17.0305 621.14 16.9331 621.294 16.8658C621.448 16.7985 621.613 16.7627 621.781 16.7606C625.176 16.6418 628.57 16.6588 631.965 16.7606C632.132 16.765 632.297 16.8023 632.45 16.8704C632.602 16.9384 632.74 17.0359 632.855 17.1573C632.97 17.2787 633.06 17.4215 633.12 17.5777C633.18 17.7339 633.209 17.9003 633.204 18.0675C633.179 18.3859 633.037 18.6836 632.804 18.9031C632.572 19.1226 632.267 19.2482 631.948 19.2556V19.2895Z" fill="#E0E0E0"/>
<path d="M625.549 216.633V213.917H624.887C623.879 212.078 622.35 210.578 620.491 209.606C616.699 207.681 612.506 206.678 608.254 206.678C604.001 206.678 599.809 207.681 596.016 209.606C594.158 210.578 592.628 212.078 591.62 213.917H590.958V216.548C590.958 219.145 592.656 221.759 596.05 223.745C599.845 225.66 604.037 226.658 608.288 226.658C612.539 226.658 616.73 225.66 620.525 223.745C623.886 221.827 625.566 219.213 625.549 216.633Z" fill="#37474F"/>
<path d="M608.254 223.914C617.806 223.914 625.549 219.438 625.549 213.917C625.549 208.396 617.806 203.92 608.254 203.92C598.702 203.92 590.958 208.396 590.958 213.917C590.958 219.438 598.702 223.914 608.254 223.914Z" fill="#455A64"/>
<path d="M603.806 130.682V212.746C603.843 213.135 603.981 213.508 604.208 213.827C604.434 214.146 604.741 214.399 605.096 214.562C606.072 215.056 607.151 215.313 608.245 215.313C609.339 215.313 610.417 215.056 611.393 214.562C611.753 214.403 612.064 214.151 612.294 213.832C612.524 213.512 612.664 213.138 612.7 212.746V130.682H603.806Z" fill="#37474F"/>
<path d="M628.197 69.2577C623.868 66.7626 619.931 66.559 616.978 68.2053L562.002 99.9785L589.583 155.293L644.745 123.384V99.1808C644.745 87.9278 637.328 74.5362 628.197 69.2577Z" fill="#455A64"/>
<path d="M589.584 131.072V155.292L556.504 136.181V111.978C556.504 100.725 563.904 95.8875 573.035 101.166C578.891 104.561 584.034 111.248 586.97 118.58C588.613 122.545 589.499 126.782 589.584 131.072Z" fill="#37474F"/>
<path d="M589.584 131.073V155.293L556.504 136.181L586.97 118.581C588.613 122.545 589.499 126.782 589.584 131.073Z" fill="#263238"/>
<path d="M584.068 139.373C581.029 130.581 571.151 119.175 562.003 113.914C552.855 108.652 547.932 111.487 550.971 120.278L556.487 136.199L589.584 155.31C589.584 155.31 587.123 148.165 584.068 139.373Z" fill="#455A64"/>
<path d="M606.828 131.989L604.978 130.92C604.58 130.738 604.142 130.663 603.707 130.705C603.271 130.747 602.855 130.903 602.5 131.158C601.477 131.827 600.627 132.727 600.016 133.785C599.406 134.844 599.053 136.031 598.986 137.251C598.94 137.688 599.012 138.129 599.194 138.529C599.376 138.929 599.662 139.273 600.022 139.525L601.719 140.51L602.041 139.984C602.394 139.907 602.732 139.776 603.043 139.593C604.065 138.928 604.916 138.031 605.526 136.975C606.137 135.919 606.489 134.735 606.556 133.517C606.555 133.213 606.515 132.911 606.437 132.617L606.828 131.989Z" fill="#263238"/>
<path d="M604.265 132.193C603.243 132.858 602.392 133.755 601.782 134.811C601.171 135.867 600.818 137.052 600.751 138.269C600.751 140.51 602.33 141.409 604.265 140.289C605.288 139.625 606.139 138.728 606.75 137.672C607.361 136.616 607.713 135.431 607.778 134.213C607.829 131.972 606.132 131.073 604.265 132.193Z" fill="#37474F"/>
<path d="M604.265 137.2C604.131 137.2 603.999 137.174 603.875 137.123C603.752 137.071 603.64 136.996 603.545 136.902C603.451 136.807 603.376 136.695 603.324 136.571C603.273 136.448 603.247 136.316 603.247 136.182V101.167C603.247 100.897 603.354 100.638 603.545 100.447C603.736 100.256 603.995 100.148 604.265 100.148C604.535 100.148 604.794 100.256 604.985 100.447C605.176 100.638 605.284 100.897 605.284 101.167V136.182C605.284 136.452 605.176 136.711 604.985 136.902C604.794 137.093 604.535 137.2 604.265 137.2Z" fill="#263238"/>
<path d="M605.181 102.084V111.215L614.975 101.167L605.181 102.084Z" fill="#37474F"/>
<path d="M90.2935 404.979C89.4449 405.437 73.8638 409.85 68.0931 402.23C62.3223 394.609 71.9119 382.728 66.4976 378.349C61.0833 373.97 45.9095 378.349 42.2604 369.149C38.6112 359.95 49.4229 355.979 43.3466 346.694C39.5108 340.839 28.7839 337.614 29.2762 332.166C29.989 324.205 44.6536 321.982 57.4511 330.587C70.2486 339.192 76.2231 332.132 80.2796 331.555C84.3361 330.978 93.0941 332.251 92.8225 346.508C92.5509 360.765 90.2935 404.979 90.2935 404.979Z" fill="#1971F5"/>
<path d="M91.3287 384.765C91.1262 384.765 90.9304 384.693 90.7753 384.563C90.6203 384.432 90.5158 384.252 90.4801 384.053C86.0162 356.896 54.5655 334.95 38.2037 330.232C38.0955 330.203 37.9942 330.152 37.9061 330.083C37.818 330.013 37.7447 329.927 37.6908 329.829C37.6369 329.73 37.6035 329.622 37.5924 329.511C37.5814 329.399 37.593 329.286 37.6266 329.179C37.6896 328.963 37.8359 328.781 38.0333 328.673C38.2306 328.565 38.4629 328.539 38.6789 328.602C55.3972 333.44 87.5777 355.996 92.1604 383.781C92.1948 384.001 92.141 384.226 92.0108 384.407C91.8806 384.588 91.6843 384.711 91.4645 384.748L91.3287 384.765Z" fill="white"/>
<path d="M54.2261 362.039C54.0394 362.04 53.8574 361.981 53.7081 361.869C53.5589 361.756 53.4507 361.598 53.4005 361.419C53.3502 361.239 53.3606 361.047 53.4301 360.874C53.4996 360.701 53.6243 360.555 53.7848 360.46C54.294 360.155 66.4126 353.077 78.3275 356.387C78.5526 356.445 78.7452 356.591 78.863 356.791C78.9808 356.992 79.0141 357.231 78.9555 357.456C78.897 357.681 78.7515 357.874 78.5509 357.991C78.3504 358.109 78.1113 358.142 77.8862 358.084C66.6502 354.961 54.7692 361.903 54.6504 361.971C54.5184 362.033 54.3711 362.057 54.2261 362.039Z" fill="white"/>
<path d="M533.998 261.576C540.685 262.493 552.074 258.623 552.888 247.489C553.703 236.355 558.303 233.334 566.738 231.517C575.174 229.701 577.652 226.765 578.619 221.47C579.587 216.174 573.171 209.843 574.97 201.866C576.769 193.889 582.778 193.906 588.684 184.893C592.469 179.088 584.713 170.228 571.796 174.03C558.88 177.832 559.915 186.166 546.999 187.235C534.083 188.305 525.987 196.146 525.732 205.905C525.477 215.665 533.998 261.576 533.998 261.576Z" fill="#1971F5"/>
<path opacity="0.2" d="M533.998 261.576C540.685 262.493 552.074 258.623 552.888 247.489C553.703 236.355 558.303 233.334 566.738 231.517C575.174 229.701 577.652 226.765 578.619 221.47C579.587 216.174 573.171 209.843 574.97 201.866C576.769 193.889 582.778 193.906 588.684 184.893C592.469 179.088 584.713 170.228 571.796 174.03C558.88 177.832 559.915 186.166 546.999 187.235C534.083 188.305 525.987 196.146 525.732 205.905C525.477 215.665 533.998 261.576 533.998 261.576Z" fill="black"/>
<path d="M531.554 240.225H531.452C531.343 240.203 531.239 240.159 531.146 240.097C531.054 240.034 530.975 239.954 530.913 239.861C530.852 239.768 530.809 239.664 530.788 239.555C530.767 239.445 530.768 239.333 530.79 239.223C537.036 208.35 571.1 180.09 579.4 177.205C579.625 177.13 579.871 177.149 580.082 177.255C580.294 177.362 580.455 177.548 580.529 177.773C580.603 177.998 580.585 178.244 580.478 178.455C580.372 178.667 580.185 178.828 579.96 178.902C571.847 181.719 538.563 209.453 532.436 239.648C532.373 239.828 532.253 239.982 532.093 240.086C531.933 240.191 531.744 240.239 531.554 240.225Z" fill="white"/>
<path d="M83.1648 229.278C83.2477 227.747 83.6905 226.258 84.4573 224.931C85.2241 223.604 86.2932 222.476 87.5777 221.64L313.164 91.3905C314.531 90.7038 316.039 90.3462 317.568 90.3462C319.098 90.3462 320.606 90.7038 321.973 91.3905L326.946 94.2759C328.233 95.1091 329.304 96.2358 330.072 97.5636C330.839 98.8914 331.28 100.382 331.359 101.914V274.833C331.272 276.363 330.827 277.85 330.061 279.177C329.294 280.503 328.228 281.632 326.946 282.471L101.36 412.703C99.9924 413.398 98.4804 413.76 96.9468 413.76C95.4131 413.76 93.9011 413.398 92.5338 412.703L87.5777 409.835C86.2951 408.997 85.2274 407.869 84.4609 406.542C83.6943 405.215 83.2504 403.727 83.1648 402.197V229.278Z" fill="#1971F5"/>
<path opacity="0.3" d="M83.1648 229.278C83.2477 227.747 83.6905 226.258 84.4573 224.931C85.2241 223.604 86.2932 222.476 87.5777 221.64L313.164 91.3905C314.531 90.7038 316.039 90.3462 317.568 90.3462C319.098 90.3462 320.606 90.7038 321.973 91.3905L326.946 94.2759C328.233 95.1091 329.304 96.2358 330.072 97.5636C330.839 98.8914 331.28 100.382 331.359 101.914V274.833C331.272 276.363 330.827 277.85 330.061 279.177C329.294 280.503 328.228 281.632 326.946 282.471L101.36 412.703C99.9924 413.398 98.4804 413.76 96.9468 413.76C95.4131 413.76 93.9011 413.398 92.5338 412.703L87.5777 409.835C86.2951 408.997 85.2274 407.869 84.4609 406.542C83.6943 405.215 83.2504 403.727 83.1648 402.197V229.278Z" fill="black"/>
<path d="M103.838 236.134L84.4547 224.932C83.6623 226.247 83.2184 227.743 83.1648 229.277V402.196C83.2504 403.726 83.6943 405.215 84.4609 406.541C85.2274 407.868 86.2951 408.996 87.5777 409.834L92.5338 412.703C93.9011 413.397 95.4131 413.759 96.9468 413.759C98.4804 413.759 99.9924 413.397 101.36 412.703L103.838 411.277V236.134Z" fill="#1971F5"/>
<path opacity="0.5" d="M103.838 236.134L84.4547 224.932C83.6623 226.247 83.2184 227.743 83.1648 229.277V402.196C83.2504 403.726 83.6943 405.215 84.4609 406.541C85.2274 407.868 86.2951 408.996 87.5777 409.834L92.5338 412.703C93.9011 413.397 95.4131 413.759 96.9468 413.759C98.4804 413.759 99.9924 413.397 101.36 412.703L103.838 411.277V236.134Z" fill="black"/>
<path d="M331.359 101.914V274.833C331.301 276.416 330.827 277.956 329.984 279.297C329.332 280.426 328.454 281.409 327.404 282.182L327.234 282.284L326.946 282.471L101.36 412.703C100.928 413.008 100.426 413.199 99.901 413.258C99.3758 413.318 98.8442 413.244 98.3553 413.043C97.8854 412.747 97.5056 412.328 97.2573 411.831C97.0089 411.334 96.9014 410.779 96.9466 410.225V237.238C96.9082 236.619 97.0205 236 97.2739 235.434C97.5273 234.867 97.9143 234.371 98.4016 233.987C98.8888 233.604 99.4619 233.344 100.072 233.23C100.681 233.116 101.31 233.152 101.903 233.334L196.764 255.891L209.188 258.844C210.654 259.119 212.168 258.988 213.565 258.464C214.962 257.941 216.19 257.045 217.114 255.874L231.507 235.829L328.388 100.946C330.018 98.6718 331.359 99.0961 331.359 101.914Z" fill="#1971F5"/>
<path opacity="0.2" d="M331.359 101.914V274.833C331.301 276.416 330.827 277.956 329.984 279.297C329.332 280.426 328.454 281.409 327.404 282.182L327.234 282.284L326.946 282.471L101.36 412.703C100.928 413.008 100.426 413.199 99.901 413.258C99.3758 413.318 98.8442 413.244 98.3553 413.043C97.8854 412.747 97.5056 412.328 97.2573 411.831C97.0089 411.334 96.9014 410.779 96.9466 410.225V237.238C96.9082 236.619 97.0205 236 97.2739 235.434C97.5273 234.867 97.9143 234.371 98.4016 233.987C98.8888 233.604 99.4619 233.344 100.072 233.23C100.681 233.116 101.31 233.152 101.903 233.334L196.764 255.891L209.188 258.844C210.654 259.119 212.168 258.988 213.565 258.464C214.962 257.941 216.19 257.045 217.114 255.874L231.507 235.829L328.388 100.946C330.018 98.6718 331.359 99.0961 331.359 101.914Z" fill="black"/>
<path d="M326.946 282.471L327.234 282.284L327.404 282.183C328.454 281.409 329.332 280.427 329.984 279.297C330.818 277.977 331.292 276.462 331.359 274.901L231.508 235.864L298.381 299.003L326.946 282.471Z" fill="#1971F5"/>
<path opacity="0.6" d="M326.946 282.471L327.234 282.284L327.404 282.183C328.454 281.409 329.332 280.427 329.984 279.297C330.818 277.977 331.292 276.462 331.359 274.901L231.508 235.864L298.381 299.003L326.946 282.471Z" fill="black"/>
<path d="M96.9467 410.225C96.8818 410.789 96.9762 411.36 97.2192 411.873C97.4622 412.386 97.844 412.821 98.3214 413.128C98.8103 413.328 99.3419 413.403 99.8671 413.343C100.392 413.284 100.894 413.093 101.326 412.788L179.027 367.793L196.764 255.772L96.9467 407.289V410.225Z" fill="#1971F5"/>
<path opacity="0.6" d="M96.9467 410.225C96.8818 410.789 96.9762 411.36 97.2192 411.873C97.4622 412.386 97.844 412.821 98.3214 413.128C98.8103 413.328 99.3419 413.403 99.8671 413.343C100.392 413.284 100.894 413.093 101.326 412.788L179.027 367.793L196.764 255.772L96.9467 407.289V410.225Z" fill="black"/>
<path d="M329.984 279.297C329.332 280.426 328.454 281.409 327.404 282.182L327.234 282.284L101.359 412.703C100.928 413.008 100.426 413.199 99.9009 413.258C99.3757 413.318 98.8441 413.244 98.3552 413.043L206.387 240.582C208.559 237.127 211.902 234.571 215.804 233.38C219.707 232.189 223.908 232.444 227.637 234.098L329.984 279.297Z" fill="#1971F5"/>
<path opacity="0.2" d="M329.984 279.297C329.332 280.426 328.454 281.409 327.404 282.182L327.234 282.284L101.359 412.703C100.928 413.008 100.426 413.199 99.9009 413.258C99.3757 413.318 98.8441 413.244 98.3552 413.043L206.387 240.582C208.559 237.127 211.902 234.571 215.804 233.38C219.707 232.189 223.908 232.444 227.637 234.098L329.984 279.297Z" fill="black"/>
<path d="M96.9468 232.146L200.702 277.973C204.437 279.622 208.642 279.869 212.546 278.669C216.449 277.469 219.788 274.901 221.952 271.438L330.901 97.0762L96.9468 232.146Z" fill="#1971F5"/>
<path opacity="0.6" d="M96.9468 232.146L200.702 277.973C204.437 279.622 208.642 279.869 212.546 278.669C216.449 277.469 219.788 274.901 221.952 271.438L330.901 97.0762L96.9468 232.146Z" fill="black"/>
<path d="M96.9468 232.146L201.432 271.184C205.042 272.532 209.004 272.611 212.666 271.408C216.328 270.205 219.471 267.791 221.578 264.564L330.901 97.0762L96.9468 232.146Z" fill="#1971F5"/>
<path opacity="0.2" d="M96.9468 232.146L201.432 271.184C205.042 272.532 209.004 272.611 212.666 271.408C216.328 270.205 219.471 267.791 221.578 264.564L330.901 97.0762L96.9468 232.146Z" fill="black"/>
<path d="M121.693 250.579C121.772 249.047 122.213 247.557 122.98 246.229C123.747 244.901 124.819 243.774 126.106 242.941L351.692 112.692C353.059 111.997 354.571 111.635 356.105 111.635C357.639 111.635 359.151 111.997 360.518 112.692L365.491 115.56C366.772 116.398 367.838 117.526 368.602 118.853C369.366 120.18 369.806 121.669 369.887 123.198V296.117C369.803 297.645 369.362 299.133 368.599 300.459C367.835 301.786 366.771 302.915 365.491 303.755L139.888 433.987C138.521 434.674 137.013 435.032 135.484 435.032C133.954 435.032 132.446 434.674 131.079 433.987L126.106 431.119C124.824 430.28 123.757 429.152 122.991 427.825C122.225 426.499 121.78 425.011 121.693 423.481V250.579Z" fill="#455A64"/>
<path d="M121.693 250.579C121.772 249.047 122.213 247.557 122.98 246.229C123.747 244.901 124.819 243.774 126.106 242.941L351.692 112.692C353.059 111.997 354.571 111.635 356.105 111.635C357.639 111.635 359.151 111.997 360.518 112.692L365.491 115.56C366.772 116.398 367.838 117.526 368.602 118.853C369.366 120.18 369.806 121.669 369.887 123.198V296.117C369.803 297.645 369.362 299.133 368.599 300.459C367.835 301.786 366.771 302.915 365.491 303.755L139.888 433.987C138.521 434.674 137.013 435.032 135.484 435.032C133.954 435.032 132.446 434.674 131.079 433.987L126.106 431.119C124.824 430.28 123.757 429.152 122.991 427.825C122.225 426.499 121.78 425.011 121.693 423.481V250.579Z" fill="#455A64"/>
<path d="M142.383 257.469L122.983 246.284C122.189 247.598 121.744 249.094 121.693 250.629V423.498C121.78 425.027 122.225 426.515 122.991 427.841C123.757 429.168 124.824 430.296 126.106 431.135L131.079 434.004C132.446 434.69 133.954 435.048 135.484 435.048C137.013 435.048 138.521 434.69 139.888 434.004L142.383 432.561V257.469Z" fill="#263238"/>
<path d="M369.904 123.198V296.117C369.847 297.7 369.372 299.24 368.529 300.581C367.877 301.71 366.999 302.693 365.949 303.466L365.779 303.568L365.491 303.755L139.905 433.987C139.473 434.292 138.971 434.483 138.446 434.543C137.921 434.602 137.389 434.528 136.901 434.327C136.423 434.02 136.041 433.585 135.798 433.072C135.555 432.559 135.461 431.988 135.526 431.425V258.522C135.487 257.903 135.6 257.284 135.853 256.718C136.107 256.152 136.493 255.655 136.981 255.272C137.468 254.888 138.041 254.628 138.651 254.514C139.261 254.4 139.889 254.436 140.482 254.618L235.343 277.175L247.767 280.129C249.234 280.403 250.747 280.272 252.144 279.748C253.541 279.225 254.769 278.329 255.694 277.158L270.07 257.113L366.951 122.23C368.512 119.99 369.904 120.38 369.904 123.198Z" fill="#37474F"/>
<path d="M365.491 303.755L365.78 303.568L365.95 303.466C366.999 302.693 367.878 301.71 368.529 300.581C369.353 299.263 369.821 297.755 369.887 296.202L270.053 257.165L336.909 320.27L365.491 303.755Z" fill="#263238"/>
<path d="M135.492 431.441C135.427 432.005 135.522 432.575 135.765 433.088C136.008 433.601 136.389 434.036 136.867 434.343C137.356 434.544 137.887 434.618 138.412 434.559C138.938 434.499 139.439 434.308 139.871 434.004L217.539 389.161L235.275 277.141L135.458 428.538L135.492 431.441Z" fill="#263238"/>
<path d="M368.512 300.581C367.86 301.711 366.982 302.693 365.932 303.467L365.762 303.569L139.905 433.988C139.473 434.293 138.971 434.484 138.446 434.543C137.921 434.602 137.389 434.528 136.9 434.327L244.916 261.883C247.082 258.423 250.422 255.859 254.325 254.662C258.228 253.465 262.432 253.715 266.166 255.366L368.512 300.581Z" fill="#37474F"/>
<path d="M135.492 253.447L239.247 299.273C242.98 300.918 247.182 301.163 251.081 299.963C254.98 298.763 258.317 296.198 260.48 292.739L369.428 118.292L135.492 253.447Z" fill="#263238"/>
<path d="M135.492 253.447L239.96 292.484C243.572 293.837 247.538 293.918 251.204 292.715C254.869 291.511 258.015 289.095 260.123 285.865L369.428 118.292L135.492 253.447Z" fill="#37474F"/>
<path d="M287.161 387.838V214.919C287.319 211.638 288.344 208.458 290.132 205.703L397.722 55.8834C399.686 53.1462 402.419 51.0552 405.575 49.8764C408.73 48.6976 412.165 48.4844 415.442 49.264L516.617 73.3145C519.878 74.1823 523.023 75.4358 525.986 77.0485L530.959 79.9169C532.238 80.758 533.302 81.887 534.065 83.2134C534.828 84.5398 535.27 86.0267 535.355 87.5547V260.474C535.268 262.001 534.825 263.487 534.061 264.813C533.298 266.139 532.236 267.269 530.959 268.112L305.356 398.344C303.991 399.035 302.482 399.395 300.952 399.395C299.422 399.395 297.913 399.035 296.547 398.344L291.574 395.476C290.292 394.638 289.224 393.51 288.457 392.183C287.691 390.856 287.247 389.368 287.161 387.838Z" fill="#1971F5"/>
<path opacity="0.3" d="M287.161 387.838V214.919C287.319 211.638 288.344 208.458 290.132 205.703L397.722 55.8834C399.686 53.1462 402.419 51.0552 405.575 49.8764C408.73 48.6976 412.165 48.4844 415.442 49.264L516.617 73.3145C519.878 74.1823 523.023 75.4358 525.986 77.0485L530.959 79.9169C532.238 80.758 533.302 81.887 534.065 83.2134C534.828 84.5398 535.27 86.0267 535.355 87.5547V260.474C535.268 262.001 534.825 263.487 534.061 264.813C533.298 266.139 532.236 267.269 530.959 268.112L305.356 398.344C303.991 399.035 302.482 399.395 300.952 399.395C299.422 399.395 297.913 399.035 296.547 398.344L291.574 395.476C290.292 394.638 289.224 393.51 288.457 392.183C287.691 390.856 287.247 389.368 287.161 387.838Z" fill="white"/>
<path d="M307.834 131.345V351.992C307.834 354.792 309.82 355.946 312.247 354.537L524.052 232.333C525.337 231.498 526.407 230.371 527.174 229.043C527.941 227.716 528.383 226.226 528.465 224.695V4.04827C528.465 1.23077 526.496 0.0935944 524.052 1.50234L312.247 123.707C310.963 124.543 309.894 125.671 309.127 126.998C308.36 128.325 307.917 129.814 307.834 131.345Z" fill="#FAFAFA"/>
<path d="M310.278 356.014C309.731 356.018 309.192 355.878 308.717 355.607C308.136 355.219 307.671 354.682 307.372 354.051C307.073 353.42 306.952 352.72 307.02 352.025V131.378C307.1 129.697 307.581 128.058 308.422 126.6C309.264 125.142 310.441 123.905 311.857 122.994L523.661 0.789311C524.214 0.338983 524.891 0.0675443 525.601 0.0110478C526.312 -0.0454488 527.023 0.115671 527.641 0.473012C528.258 0.830353 528.751 1.36699 529.056 2.01163C529.361 2.65627 529.462 3.37839 529.347 4.08205V224.729C529.268 226.409 528.787 228.045 527.946 229.501C527.104 230.957 525.926 232.19 524.51 233.097L312.705 355.301C311.974 355.75 311.136 355.996 310.278 356.014ZM526.02 1.65493C525.472 1.68628 524.941 1.85559 524.476 2.14714L312.672 124.436C311.518 125.202 310.558 126.224 309.866 127.422C309.174 128.621 308.769 129.963 308.683 131.344V351.991C308.581 352.389 308.612 352.81 308.771 353.188C308.931 353.567 309.209 353.883 309.565 354.089C309.921 354.295 310.334 354.378 310.741 354.328C311.149 354.277 311.529 354.094 311.823 353.808L523.627 231.603C524.781 230.839 525.742 229.817 526.434 228.618C527.126 227.42 527.531 226.077 527.616 224.695V4.04811C527.664 3.65005 527.609 3.24636 527.458 2.87515C527.306 2.50394 527.063 2.17745 526.75 1.9265C526.536 1.77156 526.284 1.67769 526.02 1.65493Z" fill="#E0E0E0"/>
<path d="M303.268 219.128L287.993 210.302C287.498 211.793 287.224 213.349 287.178 214.919V387.838C287.264 389.368 287.708 390.856 288.474 392.183C289.241 393.51 290.308 394.638 291.591 395.476L296.547 398.344C297.911 399.039 299.421 399.401 300.951 399.401C302.482 399.401 303.992 399.039 305.356 398.344L307.477 397.139L303.268 219.128Z" fill="#1971F5"/>
<g opacity="0.1">
<path d="M303.268 219.128L287.993 210.302C287.498 211.793 287.224 213.349 287.178 214.919V387.838C287.264 389.368 287.708 390.856 288.474 392.183C289.241 393.51 290.308 394.638 291.591 395.476L296.547 398.344C297.911 399.039 299.421 399.401 300.951 399.401C302.482 399.401 303.992 399.039 305.356 398.344L307.477 397.139L303.268 219.128Z" fill="black"/>
</g>
<path d="M535.372 87.5537V260.473C535.315 262.056 534.841 263.596 533.997 264.937C533.346 266.066 532.467 267.049 531.417 267.822L531.248 267.924L530.959 268.111L305.373 398.343C304.941 398.648 304.44 398.839 303.914 398.899C303.389 398.958 302.858 398.884 302.369 398.683C301.891 398.376 301.51 397.941 301.267 397.428C301.024 396.915 300.929 396.344 300.994 395.781V222.878C300.956 222.259 301.068 221.64 301.321 221.074C301.575 220.508 301.962 220.011 302.449 219.627C302.936 219.244 303.509 218.984 304.119 218.87C304.729 218.756 305.357 218.792 305.95 218.974L400.76 241.531L413.185 244.485C414.654 244.763 416.171 244.633 417.571 244.109C418.971 243.585 420.202 242.688 421.128 241.514L435.521 221.469L532.402 86.5863C534.031 84.3459 535.372 84.7362 535.372 87.5537Z" fill="#1971F5"/>
<path opacity="0.3" d="M535.372 87.5537V260.473C535.315 262.056 534.841 263.596 533.997 264.937C533.346 266.066 532.467 267.049 531.417 267.822L531.248 267.924L530.959 268.111L305.373 398.343C304.941 398.648 304.44 398.839 303.914 398.899C303.389 398.958 302.858 398.884 302.369 398.683C301.891 398.376 301.51 397.941 301.267 397.428C301.024 396.915 300.929 396.344 300.994 395.781V222.878C300.956 222.259 301.068 221.64 301.321 221.074C301.575 220.508 301.962 220.011 302.449 219.627C302.936 219.244 303.509 218.984 304.119 218.87C304.729 218.756 305.357 218.792 305.95 218.974L400.76 241.531L413.185 244.485C414.654 244.763 416.171 244.633 417.571 244.109C418.971 243.585 420.202 242.688 421.128 241.514L435.521 221.469L532.402 86.5863C534.031 84.3459 535.372 84.7362 535.372 87.5537Z" fill="white"/>
<path d="M530.96 268.112L531.248 267.925L531.418 267.823C532.468 267.05 533.346 266.067 533.998 264.938C534.822 263.614 535.29 262.1 535.355 260.542L435.521 221.504L502.377 284.626L530.96 268.112Z" fill="#1971F5"/>
<path d="M300.96 395.799C300.895 396.363 300.99 396.934 301.233 397.447C301.476 397.96 301.858 398.394 302.335 398.701C302.824 398.902 303.356 398.976 303.881 398.917C304.406 398.858 304.907 398.667 305.339 398.362L383.007 353.52L400.744 241.499L300.926 392.897L300.96 395.799Z" fill="#1971F5"/>
<path d="M533.998 264.938C533.346 266.067 532.468 267.05 531.418 267.823L531.248 267.925L305.374 398.344C304.942 398.649 304.44 398.84 303.915 398.899C303.39 398.959 302.858 398.885 302.369 398.684L410.385 226.24C412.55 222.783 415.888 220.222 419.787 219.026C423.686 217.829 427.886 218.076 431.618 219.722L533.998 264.938Z" fill="#1971F5"/>
<path opacity="0.3" d="M533.998 264.938C533.346 266.067 532.468 267.05 531.418 267.823L531.248 267.925L305.374 398.344C304.942 398.649 304.44 398.84 303.915 398.899C303.39 398.959 302.858 398.885 302.369 398.684L410.385 226.24C412.55 222.783 415.888 220.222 419.787 219.026C423.686 217.829 427.886 218.076 431.618 219.722L533.998 264.938Z" fill="white"/>
<path d="M401.1 182.162C399.12 182.468 397.095 182.288 395.199 181.638C393.304 180.987 391.595 179.886 390.22 178.428C387.641 175.559 386.351 171.129 386.351 165.172C386.355 158.45 387.796 151.807 390.577 145.687C393.432 139.39 397.373 133.644 402.22 128.714C407.432 123.309 413.374 118.659 419.872 114.898C426.242 111.232 431.679 109.201 436.183 108.805C440.715 108.398 444.126 109.569 446.468 112.284C448.811 115 449.965 119.158 449.965 124.725C450.063 130.247 448.755 135.702 446.163 140.578C443.879 144.994 440.396 148.676 436.115 151.203C434.637 152.253 432.825 152.724 431.023 152.527C430.382 152.4 429.791 152.091 429.321 151.636C428.852 151.181 428.523 150.601 428.375 149.964C426.962 152.637 425.167 155.09 423.046 157.245C420.9 159.459 418.455 161.362 415.782 162.897C411.165 165.511 407.482 166.292 404.766 165.392C402.05 164.493 400.761 161.743 400.761 157.161C400.799 151.402 402.574 145.788 405.852 141.053C409.421 135.804 414.163 131.458 419.702 128.358C422.015 126.98 424.529 125.972 427.153 125.37C429.104 124.842 431.16 124.842 433.111 125.37V143.243C433.111 144.686 433.365 145.568 433.858 145.908C434.35 146.247 435.165 146.077 436.319 145.415C438.469 144.017 440.06 141.909 440.816 139.458C441.964 136.147 442.51 132.658 442.429 129.155C442.429 124.697 441.456 121.455 439.51 119.43C438.469 118.413 437.201 117.661 435.81 117.235C434.419 116.81 432.946 116.725 431.515 116.986C427.372 117.619 423.403 119.098 419.855 121.331C412.351 125.494 405.882 131.295 400.93 138.304C396.354 144.881 393.923 152.712 393.971 160.725C393.971 165.602 394.973 169.16 396.976 171.401C398.014 172.522 399.314 173.369 400.759 173.867C402.204 174.364 403.75 174.497 405.258 174.252C409.482 173.654 413.532 172.167 417.139 169.89C419.629 168.45 421.987 166.791 424.183 164.934C426.228 163.246 428.088 161.346 429.733 159.265C429.903 159.046 430.103 158.852 430.327 158.688C430.48 158.603 430.633 158.688 430.769 158.892L432.636 162.286C432.704 162.421 432.755 162.564 432.788 162.711C432.729 163.089 432.544 163.436 432.262 163.695C430.211 166.161 427.939 168.433 425.473 170.484C422.877 172.662 420.1 174.616 417.173 176.323C412.298 179.402 406.815 181.394 401.1 182.162ZM423.165 150.253C424.78 148.346 425.723 145.96 425.846 143.464V133.11C423.424 133.315 421.091 134.12 419.057 135.452C415.82 137.274 413.062 139.839 411.012 142.937C409.089 145.78 408.055 149.129 408.042 152.561C408.042 155.429 408.755 157.144 410.197 157.653C411.64 158.162 413.864 157.653 416.902 155.837C419.362 154.414 421.514 152.516 423.233 150.253H423.165Z" fill="#E0E0E0"/>
<path d="M184.934 199.168L168.386 189.578H168.267C162.615 186.387 154.824 186.862 146.202 191.835C128.873 201.833 114.836 226.155 114.836 246.149C114.836 256.146 118.333 263.121 123.985 266.516L139.379 275.325L142.162 270.691C145.319 269.984 148.352 268.805 151.158 267.195C168.47 257.181 182.524 232.859 182.524 212.882C182.515 210.182 182.184 207.493 181.539 204.871L184.934 199.168Z" fill="#F28F8F"/>
<path d="M184.934 199.168L168.386 189.578H168.267C162.615 186.387 154.824 186.862 146.202 191.835C128.873 201.833 114.836 226.155 114.836 246.149C114.836 256.146 118.333 263.121 123.985 266.516L139.379 275.325L142.162 270.691C145.319 269.984 148.352 268.805 151.158 267.195C168.47 257.181 182.524 232.859 182.524 212.882C182.515 210.182 182.184 207.493 181.539 204.871L184.934 199.168Z" fill="#1971F5"/>
<path opacity="0.4" d="M184.934 199.168L168.386 189.578H168.267C162.615 186.387 154.824 186.862 146.202 191.835C128.873 201.833 114.836 226.155 114.836 246.149C114.836 256.146 118.333 263.121 123.985 266.516L139.379 275.325L142.162 270.691C145.319 269.984 148.352 268.805 151.158 267.195C168.47 257.181 182.524 232.859 182.524 212.882C182.515 210.182 182.184 207.493 181.539 204.871L184.934 199.168Z" fill="black"/>
<path d="M162.106 200.951C144.776 210.965 130.74 235.287 130.74 255.264C130.74 275.241 144.776 283.371 162.106 273.374C179.435 263.377 193.471 239.055 193.471 219.061C193.471 199.067 179.435 190.954 162.106 200.951Z" fill="#1971F5"/>
<path d="M149.85 260.05C149.528 260.05 149.358 259.864 149.358 259.575C149.392 259.255 149.484 258.945 149.63 258.658L151.208 255.111C151.313 254.764 151.52 254.456 151.802 254.229C152.037 254.122 152.291 254.065 152.549 254.059C153.961 253.975 155.355 253.695 156.69 253.227C158.466 252.629 160.173 251.844 161.782 250.885C164.287 249.528 166.483 247.667 168.232 245.42C169.544 243.719 170.276 241.643 170.32 239.496C170.32 235.745 168.028 235.202 163.446 237.799L158.982 240.497C158.252 240.905 157.743 241.058 157.437 240.922C157.132 240.786 156.979 240.379 156.979 239.7V238.291C156.955 237.692 157.115 237.099 157.437 236.594C157.846 236.042 158.374 235.589 158.982 235.27L163.412 232.707C165.187 231.741 166.692 230.347 167.791 228.65C168.711 227.227 169.217 225.576 169.25 223.881C169.25 220.249 166.693 219.909 161.579 222.863C158.433 224.655 155.601 226.948 153.194 229.652C152.968 229.907 152.718 230.14 152.447 230.348C152.347 230.395 152.234 230.407 152.127 230.383C152.019 230.358 151.923 230.298 151.853 230.212L150.343 228.515C150.258 228.437 150.191 228.342 150.144 228.237C150.097 228.132 150.073 228.019 150.071 227.904C150.105 227.514 150.273 227.148 150.546 226.868C152.05 224.988 153.758 223.28 155.638 221.776C157.828 219.992 160.161 218.391 162.614 216.99C164.828 215.612 167.271 214.641 169.827 214.122C170.632 213.926 171.469 213.908 172.281 214.069C173.093 214.23 173.86 214.567 174.529 215.055C175.132 215.636 175.597 216.345 175.89 217.129C176.184 217.913 176.299 218.753 176.226 219.587C176.188 221.456 175.772 223.297 175.004 225.001C174.184 226.968 173.036 228.782 171.61 230.365C172.342 230.119 173.125 230.064 173.885 230.203C174.645 230.343 175.357 230.673 175.955 231.162C176.478 231.771 176.874 232.478 177.122 233.241C177.37 234.005 177.463 234.809 177.397 235.609C177.268 239.372 175.948 242.997 173.629 245.963C170.783 249.781 167.147 252.942 162.97 255.23C156.996 258.726 152.623 260.333 149.85 260.05Z" fill="white"/>
<path d="M505.772 444.324L506.094 444.035C506.332 443.832 506.587 443.628 506.807 443.407L507.571 442.661L508.335 441.931C508.782 441.512 509.207 441.07 509.608 440.607L515.65 445.122L519.673 448.126C518.208 449.713 517.015 451.531 516.142 453.506C516.142 453.506 514.937 455.458 510.847 454.474C505.789 453.303 504.991 445.869 505.772 444.324Z" fill="#FFA8A7"/>
<path d="M446.588 442.253C441.971 436.889 446.078 427.979 450.559 416.42C455.481 403.707 463.085 382.101 463.085 382.101L517.076 370.95C517.076 370.95 574.597 369.847 579.875 380.845C584.153 389.654 546.269 402.91 540.838 403.385L507.588 405.133L504.092 406.83L480.737 436.38L446.588 442.253Z" fill="#1971F5"/>
<path d="M546.066 389.858C541.873 394.122 537.967 398.658 534.372 403.437C524.646 417.015 509.252 441.676 509.252 441.676C509.252 441.676 511.645 449.484 518.994 449.144C518.994 449.144 569.573 401.909 573.715 397.547C579.978 390.928 585.002 380.014 574.173 379.115C563.344 378.215 550.275 385.31 546.066 389.858Z" fill="#1971F5"/>
<path d="M534.1 403.708C534.1 403.708 543.129 390.503 552.481 385.038C552.481 385.038 543.18 386.871 529.093 404.014L534.1 403.708Z" fill="#1971F5"/>
<path opacity="0.1" d="M534.1 403.708C534.1 403.708 543.129 390.503 552.481 385.038C552.481 385.038 543.18 386.871 529.093 404.014L534.1 403.708Z" fill="black"/>
<path d="M540.244 420.409L536.697 421.088L539.989 433.257C539.989 433.257 543.18 432.952 544.283 433.02C545.891 432.638 547.438 432.039 548.883 431.238L548.034 423.803L544.131 419.73L540.244 420.409Z" fill="#FFA8A7"/>
<path d="M568.248 423.277C569.941 423.96 571.476 424.984 572.755 426.287C574.034 427.589 575.031 429.142 575.682 430.847C576.438 432.63 577.057 434.469 577.533 436.346C578.093 438.315 577.821 441.659 575.326 442.202C574.515 442.297 573.694 442.149 572.967 441.778C567.96 439.843 563.072 437.602 557.946 435.973C553.554 434.346 548.954 433.346 544.283 433.003C545.345 431.368 545.875 429.446 545.802 427.498C545.729 425.551 545.056 423.673 543.875 422.123C542.87 421.193 541.601 420.6 540.243 420.426C541.533 419.849 542.738 419.102 543.977 418.406C546.285 416.792 549.111 416.096 551.904 416.454C554.042 416.912 555.671 418.61 557.488 419.849C560.95 422.106 564.294 421.953 568.248 423.277Z" fill="#263238"/>
<path d="M453.869 430.592C458.333 429.217 465.461 427.995 486.609 426.909C507.758 425.823 536.696 421.07 536.696 421.07C541.618 425.806 539.989 433.24 539.989 433.24C539.989 433.24 502.428 445.121 490.191 446.699C470.706 449.211 463.985 449.025 455.193 447.141C445.314 445.019 439.085 435.124 453.869 430.592Z" fill="#1971F5"/>
<path d="M531.163 329.859L547.05 367.827L535.678 374.82L513.817 337.802L531.163 329.859Z" fill="#F28F8F"/>
<path d="M498.303 294.081C506.994 294.183 516.549 297.34 519.842 304.146L533.42 332.151C533.42 332.151 525.749 343.387 513.562 342.589L498.303 294.081Z" fill="#E0E0E0"/>
<path d="M440.528 353.094C440.63 351.618 442.751 344.404 445.026 336.631L461.523 342.334L457.094 356.302L443.193 369.49C440.182 364.588 439.224 358.697 440.528 353.094Z" fill="#FFA8A7"/>
<path d="M480.533 294.607C470.179 297.102 456.075 300.344 451.984 311.58C447.894 322.816 442.038 342.657 442.038 342.657C444.313 346.595 456.788 349.854 461.116 347.579L463.153 340.79V382.068C471.249 390.877 511.186 388.62 517.143 370.917V314.686C517.143 305.69 512.153 294.879 498.354 294.081L480.533 294.607Z" fill="#FAFAFA"/>
<path d="M463.102 340.823L468.296 324.479L463.102 348.139V340.823Z" fill="#E0E0E0"/>
<path d="M476.595 248.594C475.674 248.474 474.737 248.565 473.855 248.859C472.973 249.153 472.169 249.642 471.504 250.291C469.314 252.531 469.806 256.673 471.504 266.177L478.293 266.941L476.595 248.594Z" fill="#263238"/>
<path d="M515.99 245.844C517.443 245.85 518.882 245.555 520.216 244.978C522.286 243.79 522.83 246.149 521.692 248.186C520.941 249.654 519.825 250.906 518.453 251.821C517.08 252.736 515.496 253.284 513.851 253.413C513.851 253.125 511.916 248.135 511.916 248.135L515.99 245.844Z" fill="#263238"/>
<path d="M479.77 267.042C478.768 267.636 477.325 265.718 476.086 264.411C475.6 263.856 474.981 263.433 474.286 263.183C473.591 262.933 472.844 262.864 472.116 262.983C471.387 263.102 470.701 263.405 470.122 263.862C469.542 264.32 469.089 264.918 468.805 265.599C466.751 269.928 471.419 275.681 474.152 277.582C474.918 278.244 475.875 278.646 476.884 278.731C477.892 278.816 478.903 278.581 479.77 278.058L480.482 294.606C481.693 297.258 483.542 299.569 485.864 301.331C488.186 303.093 490.909 304.253 493.789 304.705C503.498 306.012 501.495 298.001 498.304 294.08V288.021C500.735 288.539 503.233 288.665 505.704 288.394C506.96 288.055 509.981 284.405 511.933 280.315C514.123 275.732 517.772 267.585 514.53 253.786C511.034 238.986 495.13 238.511 485.676 244.502C476.222 250.494 479.77 267.042 479.77 267.042Z" fill="#FFA8A7"/>
<path d="M479.769 268.723C479.26 268.723 477.342 265.549 476.086 264.411C474.389 262.833 476.595 248.593 476.595 248.593C476.595 248.593 474.898 243.178 478.293 239.597C481.687 236.016 488.341 236.61 493.195 236.44C499.143 236.473 505.034 235.289 510.507 232.961C517.398 229.974 517.907 229.566 518.756 232.638C519.605 235.71 519.944 242.584 515.837 247.218L513.596 250.867C513.596 250.867 511.509 252.564 505.11 253.413C498.711 254.262 487.747 250.748 486.44 250.562C484.573 250.307 484.182 252.106 483.181 257.028C482.23 261.356 481.467 268.689 479.769 268.723Z" fill="#263238"/>
<path d="M476.612 249.696L470.536 246.437C470.736 246.033 471.014 245.673 471.355 245.378C471.695 245.082 472.091 244.858 472.519 244.717C472.947 244.577 473.399 244.523 473.848 244.559C474.298 244.594 474.735 244.719 475.136 244.926C475.945 245.382 476.549 246.13 476.823 247.017C477.098 247.904 477.022 248.862 476.612 249.696Z" fill="#263238"/>
<path d="M498.287 288.021C498.287 288.021 489.291 286.205 486.151 284.626C484.304 283.657 482.79 282.155 481.806 280.315C482.284 282.161 483.126 283.892 484.284 285.407C486.576 288.343 498.287 290.499 498.287 290.499V288.021Z" fill="#F28F8F"/>
<path d="M498.575 266.704C498.562 267.057 498.445 267.397 498.24 267.684C498.034 267.971 497.749 268.191 497.419 268.317C497.089 268.443 496.73 268.469 496.386 268.392C496.041 268.315 495.727 268.139 495.482 267.884C495.237 267.63 495.073 267.31 495.008 266.963C494.944 266.616 494.984 266.258 495.122 265.933C495.26 265.608 495.49 265.331 495.784 265.136C496.078 264.941 496.423 264.837 496.776 264.837C497.017 264.841 497.255 264.893 497.475 264.989C497.696 265.086 497.896 265.224 498.063 265.398C498.23 265.571 498.361 265.776 498.449 266C498.537 266.224 498.58 266.463 498.575 266.704Z" fill="#263238"/>
<path d="M496.674 259.914L492.805 262.035C492.537 261.505 492.481 260.892 492.648 260.321C492.815 259.751 493.192 259.265 493.704 258.963C493.96 258.824 494.242 258.737 494.532 258.71C494.822 258.682 495.115 258.714 495.393 258.803C495.67 258.892 495.927 259.036 496.147 259.227C496.368 259.418 496.547 259.651 496.674 259.914Z" fill="#263238"/>
<path d="M497.506 278.753L501.631 280.315C501.539 280.59 501.394 280.844 501.202 281.062C501.011 281.28 500.778 281.458 500.517 281.585C500.256 281.711 499.972 281.784 499.682 281.799C499.393 281.814 499.103 281.771 498.83 281.673C498.274 281.452 497.826 281.025 497.579 280.48C497.332 279.936 497.306 279.317 497.506 278.753Z" fill="#F28F8F"/>
<path d="M514.649 261.408L511.135 258.692C511.302 258.456 511.514 258.257 511.76 258.105C512.006 257.954 512.279 257.854 512.565 257.811C512.85 257.768 513.142 257.783 513.421 257.856C513.7 257.929 513.962 258.057 514.19 258.234C514.66 258.603 514.969 259.138 515.054 259.729C515.139 260.32 514.994 260.921 514.649 261.408Z" fill="#263238"/>
<path d="M513.562 266.194C513.549 266.546 513.432 266.887 513.227 267.174C513.021 267.461 512.736 267.681 512.406 267.807C512.076 267.932 511.717 267.959 511.372 267.882C511.028 267.805 510.714 267.628 510.469 267.374C510.224 267.12 510.059 266.8 509.995 266.453C509.931 266.106 509.971 265.747 510.108 265.423C510.246 265.098 510.477 264.821 510.771 264.626C511.065 264.431 511.41 264.327 511.763 264.327C512.004 264.331 512.241 264.383 512.462 264.479C512.683 264.575 512.882 264.714 513.049 264.887C513.217 265.061 513.348 265.265 513.436 265.49C513.524 265.714 513.567 265.953 513.562 266.194Z" fill="#263238"/>
<path d="M505.076 265.973L503.378 276.7L509.319 276.004L505.076 265.973Z" fill="#F28F8F"/>
<path d="M566.993 387.788L530.416 366.673C530.096 366.49 529.733 366.394 529.364 366.394C528.995 366.394 528.632 366.49 528.312 366.673L464.171 403.708L501.783 425.501L566.993 387.788Z" fill="#37474F"/>
<path d="M501.444 422.327L481.721 410.955L539.395 377.655L559.219 388.976L501.444 422.327Z" fill="#263238"/>
<path d="M491.752 390.69L492.126 390.894L501.783 396.478L518.977 386.549L519.333 386.345L509.302 380.557L491.752 390.69Z" fill="#263238"/>
<path d="M492.126 390.893L501.783 396.478L518.977 386.548L509.302 380.964L492.126 390.893Z" fill="#263238"/>
<path d="M464.171 403.707V404.573C464.166 405.185 464.32 405.789 464.618 406.324C464.915 406.859 465.346 407.309 465.869 407.628L499.95 427.3C500.486 427.611 501.095 427.775 501.715 427.775C502.335 427.775 502.944 427.611 503.48 427.3L565.16 391.657C565.681 391.336 566.111 390.886 566.409 390.351C566.706 389.816 566.86 389.214 566.857 388.601V387.736L501.783 425.5L464.171 403.707Z" fill="#263238"/>
<path d="M501.783 425.501V427.844C502.381 427.837 502.966 427.673 503.48 427.368L565.16 391.725C565.681 391.405 566.111 390.955 566.409 390.42C566.706 389.885 566.86 389.282 566.857 388.67V387.805L501.783 425.501Z" fill="#263238"/>
<path d="M502.785 425.959C503.368 426.182 503.994 426.272 504.616 426.222C505.239 426.172 505.843 425.983 506.383 425.67L567.791 390.214C568.323 389.908 568.781 389.488 569.131 388.983C569.48 388.478 569.712 387.901 569.81 387.295L576.6 347.222C576.616 346.99 576.616 346.758 576.6 346.526C576.596 345.411 576.151 344.343 575.361 343.556L511.543 380.404C511.15 380.631 510.813 380.941 510.554 381.314C510.296 381.687 510.124 382.112 510.049 382.559L502.785 425.959Z" fill="#263238"/>
<path d="M501.783 425.501L502.208 425.739C502.395 425.845 502.587 425.941 502.785 426.027L510.049 382.628C510.123 382.18 510.296 381.755 510.554 381.382C510.812 381.01 511.15 380.699 511.543 380.472L575.361 343.624C575.1 343.381 574.816 343.165 574.512 342.979L510.575 379.827C510.181 380.054 509.841 380.364 509.58 380.737C509.319 381.109 509.143 381.535 509.065 381.983L501.783 425.501Z" fill="#455A64"/>
<path d="M537.358 388.941C538.324 385.591 540.543 382.741 543.553 380.981C546.524 379.284 548.56 380.048 548.119 382.678C547.153 386.029 544.934 388.879 541.924 390.639C538.954 392.421 536.917 391.555 537.358 388.941Z" fill="#37474F"/>
<path d="M457.094 356.268C457.094 356.268 468.109 398.7 472.76 401.738C477.41 404.776 486.066 407 490.208 408.527C494.349 410.055 496.233 412.143 495.52 412.72C494.807 413.297 488.833 413.925 486.762 414.655C484.692 415.384 487.373 418.728 491.956 422.275C496.539 425.823 500.442 425.5 499.933 427.859C499.424 430.219 489.206 432.578 480.584 427.52C471.962 422.462 469.348 415.639 464.205 409.851C459.062 404.064 447.317 380.013 443.193 369.49C443.193 369.49 443.583 349.937 449.982 351.176C456.381 352.415 457.094 356.268 457.094 356.268Z" fill="#FFA8A7"/>
<path d="M509.506 442.253C510.287 444.137 512.985 449.33 518.994 449.042L533.76 435.226L509.506 442.253Z" fill="#1971F5"/>
<path opacity="0.1" d="M509.506 442.253C510.287 444.137 512.985 449.33 518.994 449.042L533.76 435.226L509.506 442.253Z" fill="black"/>
<path d="M513.97 466.559C513.827 462.114 514.56 457.685 516.125 453.523C515.414 454.02 514.594 454.337 513.734 454.45C512.875 454.562 512.001 454.466 511.186 454.168C506.247 452.692 505.008 445.801 505.789 444.307C505.076 444.935 504.329 445.529 503.599 446.14C501.258 447.711 499.593 450.104 498.932 452.844C498.592 455 499.594 457.122 500.086 459.26C501.036 463.334 500.086 467.577 499.933 471.752C499.967 473.574 500.375 475.37 501.131 477.028C501.888 478.686 502.976 480.172 504.329 481.393C505.72 482.75 507.219 483.993 508.81 485.11C509.389 485.761 510.155 486.216 511.004 486.413C511.853 486.609 512.741 486.538 513.548 486.209C514.354 485.879 515.038 485.307 515.506 484.572C515.974 483.838 516.202 482.976 516.159 482.106C515.514 476.81 514.275 472.075 513.97 466.559Z" fill="#263238"/>
<path d="M519.571 448.16C519.112 449.025 518.705 449.857 518.349 450.689C518.773 449.874 519.18 449.025 519.571 448.16Z" fill="#37474F"/>
</svg>
